<svg width="36" height="26" viewBox="0 0 36 26" fill="none" xmlns="http://www.w3.org/2000/svg">
<path d="M35.2472 4.06021C34.8324 2.4612 33.6143 1.20461 32.0645 0.776576C29.2582 2.32458e-07 17.9999 0 17.9999 0C17.9999 0 6.74184 2.32458e-07 3.93545 0.776576C2.38558 1.20461 1.1676 2.4612 0.752716 4.06021C2.25316e-07 6.95555 0 13 0 13C0 13 2.25316e-07 19.0445 0.752716 21.9398C1.1676 23.5388 2.38558 24.7954 3.93545 25.2234C6.74184 26 17.9999 26 17.9999 26C17.9999 26 29.2582 26 32.0645 25.2234C33.6143 24.7954 34.8324 23.5388 35.2472 21.9398C36 19.0445 36 13 36 13C36 13 35.997 6.95555 35.2472 4.06021Z" fill="#FF0000"/>
<path d="M14.3965 18.5005L23.7491 13.1011L14.3965 7.70166V18.5005Z" fill="white"/>
</svg>
