<?xml version="1.0"?>
<svg xmlns="http://www.w3.org/2000/svg" xmlns:xlink="http://www.w3.org/1999/xlink" version="1.1" xml:space="preserve">
  <defs>
    <symbol id="user-contur" width="100%" height="100%" viewBox="0 0 28 28" fill="none">
      <circle cx="13.9999" cy="7.00004" r="4.66667" stroke="currentColor" stroke-width="2" />
      <ellipse cx="13.9999" cy="19.8333" rx="8.16667" ry="4.66667" stroke="currentColor" stroke-width="2" />

    </symbol>
    <symbol id="email" width="100%" height="100%" viewBox="0 0 56 56" fill="none">
      <path d="M4.66675 28.0002C4.66675 19.2006 4.66675 14.8008 7.40042 12.0672C10.1341 9.3335 14.5339 9.3335 23.3334 9.3335H32.6667C41.4663 9.3335 45.8661 9.3335 48.5997 12.0672C51.3334 14.8008 51.3334 19.2006 51.3334 28.0002C51.3334 36.7997 51.3334 41.1995 48.5997 43.9332C45.8661 46.6668 41.4663 46.6668 32.6667 46.6668H23.3334C14.5339 46.6668 10.1341 46.6668 7.40042 43.9332C4.66675 41.1995 4.66675 36.7997 4.66675 28.0002Z" stroke="currentColor" stroke-width="2" />
      <path d="M14 18.6665L19.0374 22.8644C23.3229 26.4356 25.4657 28.2212 28 28.2212C30.5343 28.2212 32.6771 26.4356 36.9626 22.8644L42 18.6665" stroke="currentColor" stroke-width="2" stroke-linecap="round" />

    </symbol>
    <symbol id="phone" width="100%" height="100%" viewBox="0 0 56 56" fill="none">
      <path d="M31.5001 4.66699C31.5001 4.66699 36.9448 5.16197 43.8745 12.0916C50.8041 19.0213 51.2991 24.466 51.2991 24.466" stroke="currentColor" stroke-width="2" stroke-linecap="round" />
      <path d="M33.1498 12.9165C33.1498 12.9165 35.4597 13.5765 38.9245 17.0413C42.3893 20.5061 43.0493 22.816 43.0493 22.816" stroke="currentColor" stroke-width="2" stroke-linecap="round" />
      <path d="M35.235 35.0635L34.5099 34.3748L35.235 35.0635ZM36.2977 33.9446L37.0228 34.6333L36.2977 33.9446ZM41.9366 33.1621L41.4377 34.0288L41.9366 33.1621ZM46.3944 35.728L45.8956 36.5946L46.3944 35.728ZM47.6506 43.7697L48.3756 44.4584L47.6506 43.7697ZM44.336 47.2593L43.6109 46.5707L44.336 47.2593ZM41.2446 48.9139L41.3429 49.9091L41.2446 48.9139ZM18.2358 38.4421L18.9609 37.7534L18.2358 38.4421ZM7.00674 16.2539L6.00817 16.3074L6.00818 16.3074L7.00674 16.2539ZM22.1142 19.8406L22.8393 20.5293L22.1142 19.8406ZM22.4799 13.2839L23.2964 12.7066L22.4799 13.2839ZM19.5376 9.12244L18.7211 9.69975V9.69975L19.5376 9.12244ZM12.2767 8.42016L13.0018 9.10885L12.2767 8.42016ZM8.61431 12.276L7.88926 11.5873L7.88926 11.5873L8.61431 12.276ZM25.8139 30.4638L26.539 29.7751L25.8139 30.4638ZM35.9601 35.7522L37.0228 34.6333L35.5727 33.256L34.5099 34.3748L35.9601 35.7522ZM41.4377 34.0288L45.8956 36.5946L46.8933 34.8613L42.4354 32.2954L41.4377 34.0288ZM46.9255 43.081L43.6109 46.5707L45.061 47.948L48.3756 44.4584L46.9255 43.081ZM41.1464 47.9187C37.6036 48.2684 28.6266 47.9296 18.9609 37.7534L17.5108 39.1308C27.6634 49.8196 37.2816 50.3099 41.3429 49.9091L41.1464 47.9187ZM18.9609 37.7534C9.78809 28.0962 8.2035 19.8929 8.0053 16.2003L6.00818 16.3074C6.23066 20.4526 7.99525 29.1127 17.5108 39.1308L18.9609 37.7534ZM22.17 21.2339L22.8393 20.5293L21.3892 19.1519L20.7199 19.8565L22.17 21.2339ZM23.2964 12.7066L20.3541 8.54512L18.7211 9.69975L21.6634 13.8612L23.2964 12.7066ZM11.5517 7.73148L7.88926 11.5873L9.33937 12.9647L13.0018 9.10885L11.5517 7.73148ZM21.445 20.5452C20.7199 19.8565 20.719 19.8575 20.7181 19.8585C20.7177 19.8588 20.7168 19.8598 20.7161 19.8605C20.7148 19.8619 20.7135 19.8633 20.7121 19.8648C20.7094 19.8678 20.7065 19.8709 20.7034 19.8743C20.6973 19.881 20.6906 19.8885 20.6834 19.8968C20.669 19.9134 20.6524 19.9332 20.6341 19.9562C20.5976 20.0024 20.5543 20.0617 20.5076 20.1346C20.414 20.2809 20.3076 20.4811 20.2159 20.7389C20.0303 21.2604 19.9163 21.9849 20.0544 22.9273C20.3274 24.7906 21.5749 27.4529 25.0889 31.1525L26.539 29.7751C23.158 26.2155 22.221 23.9185 22.0333 22.6373C21.941 22.0074 22.0276 21.6133 22.1001 21.4094C22.1375 21.3044 22.1746 21.2402 22.1922 21.2126C22.2011 21.1987 22.2053 21.1938 22.2024 21.1974C22.201 21.1992 22.1978 21.2032 22.1925 21.2093C22.1898 21.2123 22.1867 21.2159 22.1829 21.22C22.1811 21.222 22.1791 21.2242 22.1769 21.2265C22.1758 21.2277 22.1747 21.2289 22.1736 21.2301C22.173 21.2307 22.1721 21.2317 22.1718 21.232C22.1709 21.2329 22.17 21.2339 21.445 20.5452ZM25.0889 31.1525C28.5969 34.8457 31.1398 36.1789 32.9498 36.4729C33.8702 36.6223 34.5838 36.4992 35.0995 36.2958C35.3532 36.1958 35.5493 36.0801 35.6915 35.9792C35.7625 35.9289 35.8199 35.8823 35.8644 35.8433C35.8866 35.8238 35.9057 35.8062 35.9216 35.7908C35.9295 35.7832 35.9367 35.7761 35.9431 35.7696C35.9463 35.7664 35.9493 35.7633 35.9522 35.7604C35.9536 35.7589 35.9549 35.7575 35.9563 35.7561C35.9569 35.7555 35.9579 35.7545 35.9582 35.7541C35.9591 35.7531 35.9601 35.7522 35.235 35.0635C34.5099 34.3748 34.5109 34.3738 34.5118 34.3729C34.512 34.3726 34.5129 34.3716 34.5135 34.371C34.5147 34.3698 34.5158 34.3687 34.5169 34.3675C34.5191 34.3653 34.5212 34.3631 34.5232 34.3611C34.5271 34.3572 34.5305 34.3538 34.5335 34.3509C34.5394 34.3452 34.5434 34.3416 34.5455 34.3398C34.5496 34.3362 34.546 34.3397 34.5345 34.3479C34.5116 34.3641 34.4565 34.3995 34.3657 34.4353C34.1922 34.5037 33.8434 34.5918 33.2704 34.4987C32.0937 34.3076 29.926 33.341 26.539 29.7751L25.0889 31.1525ZM20.3541 8.54512C18.2397 5.55457 14.0611 5.08953 11.5517 7.73148L13.0018 9.10885C14.5734 7.45423 17.275 7.65443 18.7211 9.69975L20.3541 8.54512ZM8.0053 16.2003C7.94149 15.0114 8.4639 13.8864 9.33937 12.9647L7.88926 11.5873C6.74117 12.796 5.90755 14.4327 6.00817 16.3074L8.0053 16.2003ZM43.6109 46.5707C42.8776 47.3426 42.0401 47.8305 41.1464 47.9187L41.3429 49.9091C42.8543 49.7599 44.1087 48.9507 45.061 47.948L43.6109 46.5707ZM22.8393 20.5293C24.8359 18.4272 24.9938 15.1073 23.2964 12.7066L21.6634 13.8612C22.8427 15.5292 22.6898 17.7826 21.3892 19.1519L22.8393 20.5293ZM45.8956 36.5946C48.2169 37.9308 48.7015 41.2113 46.9255 43.081L48.3756 44.4584C51.0745 41.617 50.2974 36.8206 46.8933 34.8613L45.8956 36.5946ZM37.0228 34.6333C38.1663 33.4294 39.9486 33.1716 41.4377 34.0288L42.4354 32.2954C40.1652 30.9887 37.3673 31.3665 35.5727 33.256L37.0228 34.6333Z" fill="currentColor" />

    </symbol>
    <symbol id="menu" width="100%" height="100%" viewBox="0 0 32 32">
      <path fill-rule="evenodd" clip-rule="evenodd" d="M27.6667 9.33337C27.6667 9.88566 27.219 10.3334 26.6667 10.3334L5.33342 10.3334C4.78113 10.3334 4.33342 9.88566 4.33342 9.33337C4.33342 8.78109 4.78113 8.33337 5.33342 8.33337L26.6667 8.33337C27.219 8.33337 27.6667 8.78109 27.6667 9.33337Z" fill="currentColor" />
      <path fill-rule="evenodd" clip-rule="evenodd" d="M27.6667 16C27.6667 16.5523 27.219 17 26.6667 17L5.33342 17C4.78113 17 4.33342 16.5523 4.33342 16C4.33342 15.4477 4.78113 15 5.33342 15L26.6667 15C27.219 15 27.6667 15.4477 27.6667 16Z" fill="currentColor" />
      <path fill-rule="evenodd" clip-rule="evenodd" d="M27.6667 22.6666C27.6667 23.2189 27.219 23.6666 26.6667 23.6666L5.33342 23.6666C4.78113 23.6666 4.33342 23.2189 4.33342 22.6666C4.33342 22.1143 4.78113 21.6666 5.33342 21.6666L26.6667 21.6666C27.219 21.6666 27.6667 22.1143 27.6667 22.6666Z" fill="currentColor" />

    </symbol>
    <symbol id="arrow-right" width="100%" height="100%" viewBox="0 0 20 20">
      <path fill-rule="evenodd" clip-rule="evenodd" d="M11.2248 4.55806C11.4688 4.31398 11.8646 4.31398 12.1086 4.55806L17.1086 9.55806C17.3527 9.80214 17.3527 10.1979 17.1086 10.4419L12.1086 15.4419C11.8646 15.686 11.4688 15.686 11.2248 15.4419C10.9807 15.1979 10.9807 14.8021 11.2248 14.5581L15.1578 10.625H3.33337C2.9882 10.625 2.70837 10.3452 2.70837 10C2.70837 9.65482 2.9882 9.375 3.33337 9.375H15.1578L11.2248 5.44194C10.9807 5.19786 10.9807 4.80214 11.2248 4.55806Z" fill="currentColor" />

    </symbol>
    <symbol id="arrow-right-alt" width="100%" height="100%" viewBox="0 0 32 19">
      <path fill-rule="evenodd" clip-rule="evenodd" d="M26.4833 9.93584H0V8.61106H26.4626C25.5887 8.19476 24.8301 7.67809 24.1629 7.05973C22.3987 5.42479 21.3458 3.14178 20.4255 0.361747L21.564 0C22.4707 2.73915 23.449 4.784 24.9854 6.2079C26.3522 7.47476 28.2191 8.30143 31.0311 8.61106H32V8.69484V9.86484V9.93584H31.1493C28.2707 10.2349 26.3707 11.0641 24.9849 12.3459C23.4489 13.7666 22.4707 15.8081 21.564 18.5471L20.4255 18.1853C21.3459 15.4051 22.3989 13.1251 24.1633 11.4933C24.8357 10.8714 25.6009 10.3528 26.4833 9.93584Z" fill="currentColor" />

    </symbol>
    <symbol id="arrow-left" width="100%" height="100%" viewBox="0 0 15 10">
      <path d="M2 5L1.29289 4.29289L0.585786 5L1.29289 5.70711L2 5ZM14 6C14.5523 6 15 5.55228 15 5C15 4.44772 14.5523 4 14 4V6ZM5.29289 0.292893L1.29289 4.29289L2.70711 5.70711L6.70711 1.70711L5.29289 0.292893ZM1.29289 5.70711L5.29289 9.70711L6.70711 8.29289L2.70711 4.29289L1.29289 5.70711ZM2 6H14V4H2V6Z" fill="currentColor" />
    </symbol>
    <symbol id="arrow-left-alt" width="100%" height="100%" viewBox="0 0 32 19">
      <path fill-rule="evenodd" clip-rule="evenodd" d="M5.51674 9.93584H32V8.61106H5.53737C6.41131 8.19476 7.16994 7.67809 7.83714 7.05973C9.60126 5.42479 10.6542 3.14178 11.5745 0.361747L10.436 0C9.52926 2.73915 8.55097 4.784 7.01463 6.2079C5.64777 7.47476 3.78091 8.30143 0.968855 8.61106H0V8.69484V9.86484V9.93584H0.850685C3.72931 10.2349 5.62931 11.0641 7.01514 12.3459C8.55114 13.7666 9.52926 15.8081 10.436 18.5471L11.5745 18.1853C10.6541 15.4051 9.60108 13.1251 7.83674 11.4933C7.16428 10.8714 6.39908 10.3528 5.51674 9.93584Z" fill="currentColor" />

    </symbol>
    <symbol id="gal-ochka" width="100%" height="100%" viewBox="0 0 12 10">
      <path d="M6.23497 8.79946C5.9649 9.16602 5.54433 9.3913 5.0896 9.41369C4.63487 9.43632 4.19445 9.25304 3.88975 8.91464L1.15929 5.88456C0.725328 5.40328 0.763876 4.6614 1.24515 4.22744C1.72689 3.79348 2.46831 3.83226 2.90227 4.31377L4.83407 6.45771C4.8627 6.48956 4.90425 6.50664 4.94695 6.50456C4.98988 6.50249 5.02912 6.48102 5.05475 6.44686L9.02546 1.0614C9.40979 0.539728 10.1443 0.428699 10.6662 0.813259C11.1876 1.19782 11.2984 1.93232 10.9139 2.45376L6.23497 8.79946Z" fill="currentColor" />
    </symbol>
    <symbol id="to-right" width="100%" height="100%" viewBox="0 0 18 18">
      <path d="M10.6369 8.99995L6.15179 4.5148C5.79381 4.15682 5.79381 3.57642 6.15179 3.21844C6.50977 2.86046 7.09017 2.86046 7.44815 3.21844L12.5815 8.35177C12.9395 8.70975 12.9395 9.29015 12.5815 9.64813L7.44815 14.7815C7.09017 15.1394 6.50977 15.1394 6.15179 14.7815C5.79381 14.4235 5.79381 13.8431 6.15179 13.4851L10.6369 8.99995Z" fill="currentColor" />

    </symbol>
    <symbol id="to-left" width="100%" height="100%" viewBox="0 0 18 18">
      <path d="M7.36306 8.99995L11.8482 4.5148C12.2062 4.15682 12.2062 3.57642 11.8482 3.21844C11.4902 2.86046 10.9098 2.86046 10.5519 3.21844L5.41852 8.35177C5.06054 8.70975 5.06054 9.29015 5.41852 9.64813L10.5519 14.7815C10.9098 15.1394 11.4902 15.1394 11.8482 14.7815C12.2062 14.4235 12.2062 13.8431 11.8482 13.4851L7.36306 8.99995Z" fill="currentColor" />

    </symbol>
    <symbol id="play" width="100%" height="100%" viewBox="0 0 24 24">
      <path d="M19.5761 9.35258C21.4746 10.5065 21.4746 13.4935 19.5761 14.6474L8.11276 21.6145C6.26758 22.736 4 21.2763 4 18.9671L4 5.0329C4 2.72368 6.26758 1.26402 8.11276 2.38548L19.5761 9.35258Z" fill="currentColor" />
    </symbol>
    <symbol id="cross" width="100%" height="100%" viewBox="0 0 32 32">
      <path fill-rule="evenodd" clip-rule="evenodd" d="M7.70714 23.792C7.31661 23.4015 7.31661 22.7684 7.70714 22.3778L22.7921 7.29289C23.1826 6.90237 23.8158 6.90237 24.2063 7.29289C24.5968 7.68342 24.5968 8.31658 24.2063 8.70711L9.12135 23.792C8.73083 24.1826 8.09766 24.1826 7.70714 23.792Z" fill="currentColor" />
      <path fill-rule="evenodd" clip-rule="evenodd" d="M7.29289 7.79203C7.68342 7.40151 8.31658 7.40151 8.70711 7.79203L23.792 22.877C24.1826 23.2675 24.1826 23.9007 23.792 24.2912C23.4015 24.6817 22.7684 24.6817 22.3778 24.2912L7.29289 9.20624C6.90237 8.81572 6.90237 8.18255 7.29289 7.79203Z" fill="currentColor" />
    </symbol>
    <symbol id="triangle-down" width="100%" height="100%" viewBox="0 0 16 16" fill="none">
      <path d="M8.24686 10.5568L12.5333 6.13649C12.8008 5.86067 12.6387 5.33337 12.2864 5.33337H3.71345C3.36118 5.33337 3.19905 5.86067 3.46652 6.13649L7.75298 10.5568C7.89508 10.7033 8.10476 10.7033 8.24686 10.5568Z" fill="currentColor" />
    </symbol>
    <symbol id="star" width="100%" height="100%" viewBox="0 0 16 16" fill="none">
      <path d="M8.00001 11.8331L3.88535 13.9965L4.67135 9.41447L1.33801 6.16981L5.93801 5.50314L7.99535 1.33447L10.0527 5.50314L14.6527 6.16981L11.3193 9.41447L12.1053 13.9965L8.00001 11.8331Z" fill="currentColor" />

    </symbol>
    <symbol id="bag" width="100%" height="100%" viewBox="0 0 28 28" fill="none">
      <path d="M4.36536 23.9803C5.76492 25.6667 8.36975 25.6667 13.5794 25.6667H14.4208C19.6304 25.6667 22.2352 25.6667 23.6348 23.9803M4.36536 23.9803C2.96581 22.2939 3.44584 19.7337 4.40592 14.6133C5.08868 10.9719 5.43006 9.15125 6.7261 8.07562M4.36536 23.9803C4.36536 23.9803 4.36536 23.9803 4.36536 23.9803ZM23.6348 23.9803C25.0344 22.2939 24.5543 19.7337 23.5942 14.6133C22.9115 10.9719 22.5701 9.15125 21.2741 8.07562M23.6348 23.9803C23.6348 23.9803 23.6348 23.9803 23.6348 23.9803ZM21.2741 8.07562C19.978 7 18.1256 7 14.4208 7H13.5794C9.87457 7 8.02215 7 6.7261 8.07562M21.2741 8.07562C21.2741 8.07562 21.2741 8.07562 21.2741 8.07562ZM6.7261 8.07562C6.7261 8.07562 6.72611 8.07562 6.7261 8.07562Z" stroke="currentColor" stroke-width="2" />
      <path d="M10.5 7.00004V5.83337C10.5 3.90038 12.067 2.33337 14 2.33337C15.933 2.33337 17.5 3.90038 17.5 5.83337V7.00004" stroke="currentColor" stroke-width="2" stroke-linecap="round" />

    </symbol>
    <symbol id="calendar" width="100%" height="100%" viewBox="0 0 16 16" fill="none">
      <path d="M5.16658 1.66675C5.16658 1.39061 4.94273 1.16675 4.66658 1.16675C4.39044 1.16675 4.16659 1.39061 4.16659 1.66675V2.71959C3.20703 2.79642 2.5771 2.985 2.1143 3.4478C1.6515 3.9106 1.46293 4.54053 1.38609 5.50008H14.6137C14.5369 4.54053 14.3483 3.9106 13.8855 3.4478C13.4227 2.985 12.7928 2.79642 11.8333 2.71959V1.66675C11.8333 1.39061 11.6094 1.16675 11.3333 1.16675C11.0571 1.16675 10.8333 1.39061 10.8333 1.66675V2.67535C10.3897 2.66675 9.89261 2.66675 9.33325 2.66675H6.66658C6.10723 2.66675 5.6101 2.66675 5.16658 2.67535V1.66675Z" fill="currentColor" />
      <path fill-rule="evenodd" clip-rule="evenodd" d="M14.6666 8.00008V9.33342C14.6666 11.8476 14.6666 13.1047 13.8855 13.8857C13.1045 14.6667 11.8474 14.6667 9.33325 14.6667H6.66658C4.15243 14.6667 2.89535 14.6667 2.1143 13.8857C1.33325 13.1047 1.33325 11.8476 1.33325 9.33342V8.00008C1.33325 7.44073 1.33325 6.94359 1.34185 6.50008H14.658C14.6666 6.94359 14.6666 7.44073 14.6666 8.00008ZM10.9999 12.0001C11.5522 12.0001 11.9999 11.5524 11.9999 11.0001C11.9999 10.4478 11.5522 10.0001 10.9999 10.0001C10.4476 10.0001 9.99992 10.4478 9.99992 11.0001C9.99992 11.5524 10.4476 12.0001 10.9999 12.0001Z" fill="currentColor" />

    </symbol>

    <!--  -->
    <!--  -->
    <!--  -->
  </defs>
</svg>