<?xml version="1.0"?>
<svg xmlns="http://www.w3.org/2000/svg" xmlns:xlink="http://www.w3.org/1999/xlink" version="1.1" xml:space="preserve">
  <defs>
    <symbol id="user-contur" width="100%" height="100%" viewBox="0 0 28 28" fill="none">
      <circle cx="13.9999" cy="7.00004" r="4.66667" stroke="currentColor" stroke-width="2" />
      <ellipse cx="13.9999" cy="19.8333" rx="8.16667" ry="4.66667" stroke="currentColor" stroke-width="2" />

    </symbol>
    <symbol id="email" width="100%" height="100%" viewBox="0 0 56 56" fill="none">
      <path d="M4.66675 28.0002C4.66675 19.2006 4.66675 14.8008 7.40042 12.0672C10.1341 9.3335 14.5339 9.3335 23.3334 9.3335H32.6667C41.4663 9.3335 45.8661 9.3335 48.5997 12.0672C51.3334 14.8008 51.3334 19.2006 51.3334 28.0002C51.3334 36.7997 51.3334 41.1995 48.5997 43.9332C45.8661 46.6668 41.4663 46.6668 32.6667 46.6668H23.3334C14.5339 46.6668 10.1341 46.6668 7.40042 43.9332C4.66675 41.1995 4.66675 36.7997 4.66675 28.0002Z" stroke="currentColor" stroke-width="2" />
      <path d="M14 18.6665L19.0374 22.8644C23.3229 26.4356 25.4657 28.2212 28 28.2212C30.5343 28.2212 32.6771 26.4356 36.9626 22.8644L42 18.6665" stroke="currentColor" stroke-width="2" stroke-linecap="round" />

    </symbol>
    <symbol id="phone" width="100%" height="100%" viewBox="0 0 16 16" fill="none">
      <path d="M8.53333 4.2666C8.23893 4.2666 8 4.50553 8 4.79993C8 5.09433 8.23893 5.33327 8.53333 5.33327C9.70987 5.33327 10.6667 6.29007 10.6667 7.4666C10.6667 7.761 10.9056 7.99993 11.2 7.99993C11.4944 7.99993 11.7333 7.761 11.7333 7.4666C11.7333 5.70233 10.2976 4.2666 8.53333 4.2666Z" fill="currentColor" />
      <path d="M8.53333 2.1333C8.23893 2.1333 8 2.37223 8 2.66663C8 2.96103 8.23893 3.19997 8.53333 3.19997C10.8864 3.19997 12.8 5.11357 12.8 7.46663C12.8 7.76103 13.0389 7.99997 13.3333 7.99997C13.6277 7.99997 13.8667 7.76103 13.8667 7.46663C13.8667 4.52583 11.4741 2.1333 8.53333 2.1333Z" fill="currentColor" />
      <path d="M8.53333 0C8.23893 0 8 0.238933 8 0.533333C8 0.827733 8.23893 1.06667 8.53333 1.06667C12.0629 1.06667 14.9333 3.93707 14.9333 7.46667C14.9333 7.76107 15.1723 8 15.4667 8C15.7611 8 16 7.76107 16 7.46667C16 3.34933 12.6496 0 8.53333 0Z" fill="currentColor" />
      <path d="M14.4 11.7333C12.8512 11.7333 11.376 11.3962 10.016 10.7317C9.888 10.6677 9.7408 10.6602 9.60747 10.7072C9.47307 10.7541 9.3632 10.8523 9.30133 10.9792L8.46293 12.7147C6.29333 11.504 4.49707 9.70878 3.28747 7.53918L5.02187 6.69865C5.14987 6.63678 5.24693 6.52692 5.29387 6.39252C5.33973 6.25918 5.3312 6.11198 5.26827 5.98398C4.60373 4.62398 4.26667 3.14878 4.26667 1.59998C4.26667 1.30558 4.02773 1.06665 3.73333 1.06665H0.533333C0.238933 1.06665 0 1.30558 0 1.59998C0 9.54025 6.45973 16 14.4 16C14.6944 16 14.9333 15.761 14.9333 15.4667V12.2666C14.9333 11.9722 14.6944 11.7333 14.4 11.7333Z" fill="currentColor" />


    </symbol>
    <symbol id="menu" width="100%" height="100%" viewBox="0 0 32 32">
      <path fill-rule="evenodd" clip-rule="evenodd" d="M27.6667 9.33337C27.6667 9.88566 27.219 10.3334 26.6667 10.3334L5.33342 10.3334C4.78113 10.3334 4.33342 9.88566 4.33342 9.33337C4.33342 8.78109 4.78113 8.33337 5.33342 8.33337L26.6667 8.33337C27.219 8.33337 27.6667 8.78109 27.6667 9.33337Z" fill="currentColor" />
      <path fill-rule="evenodd" clip-rule="evenodd" d="M27.6667 16C27.6667 16.5523 27.219 17 26.6667 17L5.33342 17C4.78113 17 4.33342 16.5523 4.33342 16C4.33342 15.4477 4.78113 15 5.33342 15L26.6667 15C27.219 15 27.6667 15.4477 27.6667 16Z" fill="currentColor" />
      <path fill-rule="evenodd" clip-rule="evenodd" d="M27.6667 22.6666C27.6667 23.2189 27.219 23.6666 26.6667 23.6666L5.33342 23.6666C4.78113 23.6666 4.33342 23.2189 4.33342 22.6666C4.33342 22.1143 4.78113 21.6666 5.33342 21.6666L26.6667 21.6666C27.219 21.6666 27.6667 22.1143 27.6667 22.6666Z" fill="currentColor" />

    </symbol>
    <symbol id="arrow-right" width="100%" height="100%" viewBox="0 0 20 20">
      <path fill-rule="evenodd" clip-rule="evenodd" d="M12.2929 5.29289C12.6834 4.90237 13.3166 4.90237 13.7071 5.29289L17.7071 9.29289C18.0976 9.68342 18.0976 10.3166 17.7071 10.7071L13.7071 14.7071C13.3166 15.0976 12.6834 15.0976 12.2929 14.7071C11.9024 14.3166 11.9024 13.6834 12.2929 13.2929L14.5858 11H3C2.44772 11 2 10.5523 2 10C2 9.44772 2.44772 9 3 9H14.5858L12.2929 6.70711C11.9024 6.31658 11.9024 5.68342 12.2929 5.29289Z" fill="currentColor" />

    </symbol>
    <symbol id="arrow-right-alt" width="100%" height="100%" viewBox="0 0 32 19">
      <path fill-rule="evenodd" clip-rule="evenodd" d="M26.4833 9.93584H0V8.61106H26.4626C25.5887 8.19476 24.8301 7.67809 24.1629 7.05973C22.3987 5.42479 21.3458 3.14178 20.4255 0.361747L21.564 0C22.4707 2.73915 23.449 4.784 24.9854 6.2079C26.3522 7.47476 28.2191 8.30143 31.0311 8.61106H32V8.69484V9.86484V9.93584H31.1493C28.2707 10.2349 26.3707 11.0641 24.9849 12.3459C23.4489 13.7666 22.4707 15.8081 21.564 18.5471L20.4255 18.1853C21.3459 15.4051 22.3989 13.1251 24.1633 11.4933C24.8357 10.8714 25.6009 10.3528 26.4833 9.93584Z" fill="currentColor" />

    </symbol>
    <symbol id="arrow-left" width="100%" height="100%" viewBox="0 0 20 20">
      <path fill-rule="evenodd" clip-rule="evenodd" d="M7.70711 5.29289C7.31658 4.90237 6.68342 4.90237 6.29289 5.29289L2.29289 9.29289C1.90237 9.68342 1.90237 10.3166 2.29289 10.7071L6.29289 14.7071C6.68342 15.0976 7.31658 15.0976 7.70711 14.7071C8.09763 14.3166 8.09763 13.6834 7.70711 13.2929L5.41421 11H17C17.5523 11 18 10.5523 18 10C18 9.44772 17.5523 9 17 9H5.41421L7.70711 6.70711C8.09763 6.31658 8.09763 5.68342 7.70711 5.29289Z" fill="currentColor" />

    </symbol>
    <symbol id="arrow-left-alt" width="100%" height="100%" viewBox="0 0 32 19">
      <path fill-rule="evenodd" clip-rule="evenodd" d="M5.51674 9.93584H32V8.61106H5.53737C6.41131 8.19476 7.16994 7.67809 7.83714 7.05973C9.60126 5.42479 10.6542 3.14178 11.5745 0.361747L10.436 0C9.52926 2.73915 8.55097 4.784 7.01463 6.2079C5.64777 7.47476 3.78091 8.30143 0.968855 8.61106H0V8.69484V9.86484V9.93584H0.850685C3.72931 10.2349 5.62931 11.0641 7.01514 12.3459C8.55114 13.7666 9.52926 15.8081 10.436 18.5471L11.5745 18.1853C10.6541 15.4051 9.60108 13.1251 7.83674 11.4933C7.16428 10.8714 6.39908 10.3528 5.51674 9.93584Z" fill="currentColor" />

    </symbol>
    <symbol id="gal-ochka" width="100%" height="100%" viewBox="0 0 12 10">
      <path d="M6.23497 8.79946C5.9649 9.16602 5.54433 9.3913 5.0896 9.41369C4.63487 9.43632 4.19445 9.25304 3.88975 8.91464L1.15929 5.88456C0.725328 5.40328 0.763876 4.6614 1.24515 4.22744C1.72689 3.79348 2.46831 3.83226 2.90227 4.31377L4.83407 6.45771C4.8627 6.48956 4.90425 6.50664 4.94695 6.50456C4.98988 6.50249 5.02912 6.48102 5.05475 6.44686L9.02546 1.0614C9.40979 0.539728 10.1443 0.428699 10.6662 0.813259C11.1876 1.19782 11.2984 1.93232 10.9139 2.45376L6.23497 8.79946Z" fill="currentColor" />
    </symbol>
    <symbol id="to-right" width="100%" height="100%" viewBox="0 0 18 18">
      <path d="M10.6369 8.99995L6.15179 4.5148C5.79381 4.15682 5.79381 3.57642 6.15179 3.21844C6.50977 2.86046 7.09017 2.86046 7.44815 3.21844L12.5815 8.35177C12.9395 8.70975 12.9395 9.29015 12.5815 9.64813L7.44815 14.7815C7.09017 15.1394 6.50977 15.1394 6.15179 14.7815C5.79381 14.4235 5.79381 13.8431 6.15179 13.4851L10.6369 8.99995Z" fill="currentColor" />

    </symbol>
    <symbol id="to-left" width="100%" height="100%" viewBox="0 0 18 18">
      <path d="M7.36306 8.99995L11.8482 4.5148C12.2062 4.15682 12.2062 3.57642 11.8482 3.21844C11.4902 2.86046 10.9098 2.86046 10.5519 3.21844L5.41852 8.35177C5.06054 8.70975 5.06054 9.29015 5.41852 9.64813L10.5519 14.7815C10.9098 15.1394 11.4902 15.1394 11.8482 14.7815C12.2062 14.4235 12.2062 13.8431 11.8482 13.4851L7.36306 8.99995Z" fill="currentColor" />

    </symbol>
    <symbol id="play" width="100%" height="100%" viewBox="0 0 24 24">
      <path d="M19.5761 9.35258C21.4746 10.5065 21.4746 13.4935 19.5761 14.6474L8.11276 21.6145C6.26758 22.736 4 21.2763 4 18.9671L4 5.0329C4 2.72368 6.26758 1.26402 8.11276 2.38548L19.5761 9.35258Z" fill="currentColor" />
    </symbol>
    <symbol id="cross" width="100%" height="100%" viewBox="0 0 32 32">
      <path fill-rule="evenodd" clip-rule="evenodd" d="M7.70714 23.792C7.31661 23.4015 7.31661 22.7684 7.70714 22.3778L22.7921 7.29289C23.1826 6.90237 23.8158 6.90237 24.2063 7.29289C24.5968 7.68342 24.5968 8.31658 24.2063 8.70711L9.12135 23.792C8.73083 24.1826 8.09766 24.1826 7.70714 23.792Z" fill="currentColor" />
      <path fill-rule="evenodd" clip-rule="evenodd" d="M7.29289 7.79203C7.68342 7.40151 8.31658 7.40151 8.70711 7.79203L23.792 22.877C24.1826 23.2675 24.1826 23.9007 23.792 24.2912C23.4015 24.6817 22.7684 24.6817 22.3778 24.2912L7.29289 9.20624C6.90237 8.81572 6.90237 8.18255 7.29289 7.79203Z" fill="currentColor" />
    </symbol>
    <symbol id="triangle-down" width="100%" height="100%" viewBox="0 0 16 16" fill="none">
      <path d="M8.24686 10.5568L12.5333 6.13649C12.8008 5.86067 12.6387 5.33337 12.2864 5.33337H3.71345C3.36118 5.33337 3.19905 5.86067 3.46652 6.13649L7.75298 10.5568C7.89508 10.7033 8.10476 10.7033 8.24686 10.5568Z" fill="currentColor" />
    </symbol>
    <symbol id="star" width="100%" height="100%" viewBox="0 0 16 16" fill="none">
      <path d="M8.00001 11.8331L3.88535 13.9965L4.67135 9.41447L1.33801 6.16981L5.93801 5.50314L7.99535 1.33447L10.0527 5.50314L14.6527 6.16981L11.3193 9.41447L12.1053 13.9965L8.00001 11.8331Z" fill="currentColor" />

    </symbol>
    <symbol id="bag" width="100%" height="100%" viewBox="0 0 28 28" fill="none">
      <path d="M4.36536 23.9803C5.76492 25.6667 8.36975 25.6667 13.5794 25.6667H14.4208C19.6304 25.6667 22.2352 25.6667 23.6348 23.9803M4.36536 23.9803C2.96581 22.2939 3.44584 19.7337 4.40592 14.6133C5.08868 10.9719 5.43006 9.15125 6.7261 8.07562M4.36536 23.9803C4.36536 23.9803 4.36536 23.9803 4.36536 23.9803ZM23.6348 23.9803C25.0344 22.2939 24.5543 19.7337 23.5942 14.6133C22.9115 10.9719 22.5701 9.15125 21.2741 8.07562M23.6348 23.9803C23.6348 23.9803 23.6348 23.9803 23.6348 23.9803ZM21.2741 8.07562C19.978 7 18.1256 7 14.4208 7H13.5794C9.87457 7 8.02215 7 6.7261 8.07562M21.2741 8.07562C21.2741 8.07562 21.2741 8.07562 21.2741 8.07562ZM6.7261 8.07562C6.7261 8.07562 6.72611 8.07562 6.7261 8.07562Z" stroke="currentColor" stroke-width="2" />
      <path d="M10.5 7.00004V5.83337C10.5 3.90038 12.067 2.33337 14 2.33337C15.933 2.33337 17.5 3.90038 17.5 5.83337V7.00004" stroke="currentColor" stroke-width="2" stroke-linecap="round" />

    </symbol>
    <symbol id="calendar" width="100%" height="100%" viewBox="0 0 16 16" fill="none">
      <path d="M5.16658 1.66675C5.16658 1.39061 4.94273 1.16675 4.66658 1.16675C4.39044 1.16675 4.16659 1.39061 4.16659 1.66675V2.71959C3.20703 2.79642 2.5771 2.985 2.1143 3.4478C1.6515 3.9106 1.46293 4.54053 1.38609 5.50008H14.6137C14.5369 4.54053 14.3483 3.9106 13.8855 3.4478C13.4227 2.985 12.7928 2.79642 11.8333 2.71959V1.66675C11.8333 1.39061 11.6094 1.16675 11.3333 1.16675C11.0571 1.16675 10.8333 1.39061 10.8333 1.66675V2.67535C10.3897 2.66675 9.89261 2.66675 9.33325 2.66675H6.66658C6.10723 2.66675 5.6101 2.66675 5.16658 2.67535V1.66675Z" fill="currentColor" />
      <path fill-rule="evenodd" clip-rule="evenodd" d="M14.6666 8.00008V9.33342C14.6666 11.8476 14.6666 13.1047 13.8855 13.8857C13.1045 14.6667 11.8474 14.6667 9.33325 14.6667H6.66658C4.15243 14.6667 2.89535 14.6667 2.1143 13.8857C1.33325 13.1047 1.33325 11.8476 1.33325 9.33342V8.00008C1.33325 7.44073 1.33325 6.94359 1.34185 6.50008H14.658C14.6666 6.94359 14.6666 7.44073 14.6666 8.00008ZM10.9999 12.0001C11.5522 12.0001 11.9999 11.5524 11.9999 11.0001C11.9999 10.4478 11.5522 10.0001 10.9999 10.0001C10.4476 10.0001 9.99992 10.4478 9.99992 11.0001C9.99992 11.5524 10.4476 12.0001 10.9999 12.0001Z" fill="currentColor" />

    </symbol>
    <symbol id="calendar-alt" width="100%" height="100%" viewBox="0 0 17 17" fill="none">
      <path d="M6.29464 9.4375H5.13393C4.94241 9.4375 4.78571 9.2793 4.78571 9.08594V7.91406C4.78571 7.7207 4.94241 7.5625 5.13393 7.5625H6.29464C6.48616 7.5625 6.64286 7.7207 6.64286 7.91406V9.08594C6.64286 9.2793 6.48616 9.4375 6.29464 9.4375ZM9.42857 9.08594V7.91406C9.42857 7.7207 9.27187 7.5625 9.08036 7.5625H7.91964C7.72812 7.5625 7.57143 7.7207 7.57143 7.91406V9.08594C7.57143 9.2793 7.72812 9.4375 7.91964 9.4375H9.08036C9.27187 9.4375 9.42857 9.2793 9.42857 9.08594ZM12.2143 9.08594V7.91406C12.2143 7.7207 12.0576 7.5625 11.8661 7.5625H10.7054C10.5138 7.5625 10.3571 7.7207 10.3571 7.91406V9.08594C10.3571 9.2793 10.5138 9.4375 10.7054 9.4375H11.8661C12.0576 9.4375 12.2143 9.2793 12.2143 9.08594ZM9.42857 11.8984V10.7266C9.42857 10.5332 9.27187 10.375 9.08036 10.375H7.91964C7.72812 10.375 7.57143 10.5332 7.57143 10.7266V11.8984C7.57143 12.0918 7.72812 12.25 7.91964 12.25H9.08036C9.27187 12.25 9.42857 12.0918 9.42857 11.8984ZM6.64286 11.8984V10.7266C6.64286 10.5332 6.48616 10.375 6.29464 10.375H5.13393C4.94241 10.375 4.78571 10.5332 4.78571 10.7266V11.8984C4.78571 12.0918 4.94241 12.25 5.13393 12.25H6.29464C6.48616 12.25 6.64286 12.0918 6.64286 11.8984ZM12.2143 11.8984V10.7266C12.2143 10.5332 12.0576 10.375 11.8661 10.375H10.7054C10.5138 10.375 10.3571 10.5332 10.3571 10.7266V11.8984C10.3571 12.0918 10.5138 12.25 10.7054 12.25H11.8661C12.0576 12.25 12.2143 12.0918 12.2143 11.8984ZM15 4.28125V14.5938C15 15.3701 14.3761 16 13.6071 16H3.39286C2.62388 16 2 15.3701 2 14.5938V4.28125C2 3.50488 2.62388 2.875 3.39286 2.875H4.78571V1.35156C4.78571 1.1582 4.94241 1 5.13393 1H6.29464C6.48616 1 6.64286 1.1582 6.64286 1.35156V2.875H10.3571V1.35156C10.3571 1.1582 10.5138 1 10.7054 1H11.8661C12.0576 1 12.2143 1.1582 12.2143 1.35156V2.875H13.6071C14.3761 2.875 15 3.50488 15 4.28125ZM13.6071 14.418V5.6875H3.39286V14.418C3.39286 14.5146 3.47121 14.5938 3.56696 14.5938H13.433C13.5288 14.5938 13.6071 14.5146 13.6071 14.418Z" fill="currentColor" />
    </symbol>
    <symbol id="map" width="100%" height="100%" viewBox="0 0 13 16" fill="none">
      <path d="M6.17181 0.00407228C2.98436 0.115611 0.336378 2.5957 0.030462 5.76143C-0.032037 6.39457 0.00414668 7.00803 0.115987 7.59525C0.115987 7.59525 0.125855 7.66414 0.15875 7.79536C0.257432 8.23495 0.405456 8.66143 0.589664 9.06165C1.2311 10.5773 2.71463 13.1131 6.04353 15.8721C6.24747 16.0426 6.54681 16.0426 6.75404 15.8721C10.0829 13.1164 11.5665 10.5805 12.2112 9.05837C12.3987 8.65814 12.5434 8.23495 12.6421 7.79208C12.6717 7.66414 12.6849 7.59197 12.6849 7.59197C12.7605 7.1983 12.8 6.7948 12.8 6.38145C12.8 2.77941 9.80992 -0.123869 6.17181 0.00407228ZM6.39878 9.55701C4.68171 9.55701 3.29028 8.16934 3.29028 6.4569C3.29028 4.74446 4.68171 3.35679 6.39878 3.35679C8.11586 3.35679 9.50729 4.74446 9.50729 6.4569C9.50729 8.16934 8.11586 9.55701 6.39878 9.55701Z" fill="currentColor" />

    </symbol>
    <symbol id="mail" width="100%" height="100%" viewBox="0 0 13 16" fill="none">
      <path d="M0.00333343 1.88355L7.99995 5.88186L15.9967 1.8835C15.9363 0.833152 15.0655 0 14 0H2C0.934518 0 0.0636347 0.833179 0.00333343 1.88355Z" fill="currentColor" />
      <path d="M16 4.1179L7.99995 8.11793L0 4.11796V10C0 11.1046 0.895431 12 2 12H14C15.1046 12 16 11.1046 16 10V4.1179Z" fill="currentColor" />


    </symbol>
    <symbol id="cart" width="100%" height="100%" viewBox="0 0 16 17" fill="none">
      <path d="M1 0C0.447715 0 0 0.447715 0 1C0 1.55228 0.447715 2 1 2H2.21922L2.52478 3.22224C2.52799 3.23637 2.5315 3.25039 2.5353 3.26429L3.89253 8.69321L2.99995 9.58578C1.74002 10.8457 2.63235 13 4.41416 13H13C13.5522 13 14 12.5523 14 12C14 11.4477 13.5522 11 13 11L4.41417 11L5.41416 10H12C12.3788 10 12.725 9.786 12.8944 9.44721L15.8944 3.44721C16.0494 3.13723 16.0329 2.76909 15.8507 2.47427C15.6684 2.17945 15.3466 2 15 2H4.28078L3.97014 0.757464C3.85885 0.312297 3.45887 0 3 0H1Z" fill="currentColor" />
      <path d="M14 15.5C14 16.3284 13.3284 17 12.5 17C11.6716 17 11 16.3284 11 15.5C11 14.6716 11.6716 14 12.5 14C13.3284 14 14 14.6716 14 15.5Z" fill="currentColor" />
      <path d="M4.5 17C5.32843 17 6 16.3284 6 15.5C6 14.6716 5.32843 14 4.5 14C3.67157 14 3 14.6716 3 15.5C3 16.3284 3.67157 17 4.5 17Z" fill="currentColor" />
    </symbol>
    <symbol id="cart-contur" width="100%" height="100%" viewBox="0 0 16 17" fill="none">
      <path d="M1 0C0.447715 0 0 0.447715 0 1C0 1.55228 0.447715 2 1 2H2.21922L2.52478 3.22224C2.52799 3.23637 2.5315 3.25039 2.5353 3.26429L3.89253 8.69321L2.99995 9.58578C1.74002 10.8457 2.63235 13 4.41416 13H13C13.5522 13 14 12.5523 14 12C14 11.4477 13.5522 11 13 11L4.41417 11L5.41416 10H12C12.3788 10 12.725 9.786 12.8944 9.44721L15.8944 3.44721C16.0494 3.13723 16.0329 2.76909 15.8507 2.47427C15.6684 2.17945 15.3466 2 15 2H4.28078L3.97014 0.757464C3.85885 0.312297 3.45887 0 3 0H1Z" stroke="currentColor" />
      <path d="M14 15.5C14 16.3284 13.3284 17 12.5 17C11.6716 17 11 16.3284 11 15.5C11 14.6716 11.6716 14 12.5 14C13.3284 14 14 14.6716 14 15.5Z" fill="currentColor" />
      <path d="M4.5 17C5.32843 17 6 16.3284 6 15.5C6 14.6716 5.32843 14 4.5 14C3.67157 14 3 14.6716 3 15.5C3 16.3284 3.67157 17 4.5 17Z" fill="currentColor" />
    </symbol>
    <symbol id="notification-contur" width="100%" height="100%" viewBox="0 0 20 20" fill="none">
      <path d="M3.69966 14.8C3.58038 14.7999 3.4631 14.765 3.35894 14.6986C3.25477 14.6322 3.16719 14.5365 3.1045 14.4205C3.0418 14.3045 3.00608 14.1722 3.00071 14.036C2.99534 13.8998 3.02051 13.7643 3.07383 13.6424L4.3997 10.6104V8.4C4.3997 6.70261 4.98973 5.07475 6.03999 3.87452C7.09025 2.67428 8.51471 2 10 2C11.4853 2 12.9097 2.67428 13.96 3.87452C15.0103 5.07475 15.6003 6.70261 15.6003 8.4V10.6112L16.9262 13.6424C16.9795 13.7643 17.0047 13.8998 16.9993 14.036C16.9939 14.1722 16.9582 14.3045 16.8955 14.4205C16.8328 14.5365 16.7452 14.6322 16.6411 14.6986C16.5369 14.765 16.4196 14.7999 16.3003 14.8H3.69966ZM10 18C9.37916 17.9999 8.77593 17.7641 8.28506 17.3297C7.7942 16.8953 7.4435 16.2869 7.28806 15.6H12.7119C12.5565 16.2869 12.2058 16.8953 11.7149 17.3297C11.2241 17.7641 10.6208 17.9999 10 18Z" stroke="currentColor" />
    </symbol>
    <symbol id="notification" width="100%" height="100%" viewBox="0 0 20 20" fill="none">
      <path d="M3.69966 14.8C3.58038 14.7999 3.4631 14.765 3.35894 14.6986C3.25477 14.6322 3.16719 14.5365 3.1045 14.4205C3.0418 14.3045 3.00608 14.1722 3.00071 14.036C2.99534 13.8998 3.02051 13.7643 3.07383 13.6424L4.3997 10.6104V8.4C4.3997 6.70261 4.98973 5.07475 6.03999 3.87452C7.09025 2.67428 8.51471 2 10 2C11.4853 2 12.9097 2.67428 13.96 3.87452C15.0103 5.07475 15.6003 6.70261 15.6003 8.4V10.6112L16.9262 13.6424C16.9795 13.7643 17.0047 13.8998 16.9993 14.036C16.9939 14.1722 16.9582 14.3045 16.8955 14.4205C16.8328 14.5365 16.7452 14.6322 16.6411 14.6986C16.5369 14.765 16.4196 14.7999 16.3003 14.8H3.69966ZM10 18C9.37916 17.9999 8.77593 17.7641 8.28506 17.3297C7.7942 16.8953 7.4435 16.2869 7.28806 15.6H12.7119C12.5565 16.2869 12.2058 16.8953 11.7149 17.3297C11.2241 17.7641 10.6208 17.9999 10 18Z" fill="currentColor" />
    </symbol>
    <!--  -->
    <!--  -->
    <!--  -->
  </defs>
</svg>